<svg xmlns="http://www.w3.org/2000/svg" width="221" height="52">
    <path fill="#FFF" fill-rule="evenodd" d="M216.733 46.6c-.845.853-1.887 1.28-3.124 1.28s-2.278-.427-3.123-1.28c-.847-.853-1.27-1.914-1.27-3.184 0-1.269.423-2.33 1.27-3.184.845-.853 1.886-1.279 3.123-1.279 1.237 0 2.279.426 3.124 1.279.845.854 1.269 1.915 1.269 3.184 0 1.27-.424 2.331-1.269 3.184zm-1.352-5.15c-.479-.543-1.067-.816-1.766-.816-.698 0-1.287.273-1.765.816-.479.544-.719 1.201-.719 1.972 0 .771.24 1.427.719 1.966.478.541 1.067.811 1.765.811.699 0 1.287-.27 1.766-.811.478-.539.718-1.195.718-1.966 0-.771-.24-1.428-.718-1.972zm-18.443.928v5.415h-1.867v-8.642h1.747l4.106 5.563v-5.563h1.867v8.642h-1.867l-3.986-5.415zm-10.64-3.227h1.867v8.642h-1.867v-8.642zm-8.948 3.455c.794.202 1.411.505 1.849.909.439.404.659.993.659 1.769 0 .774-.282 1.402-.844 1.884-.563.483-1.303.724-2.221.724-1.323 0-2.516-.507-3.578-1.521l1.113-1.409c.902.816 1.736 1.224 2.501 1.224.343 0 .613-.076.809-.229a.744.744 0 0 0 .293-.618.729.729 0 0 0-.312-.619c-.207-.152-.618-.306-1.232-.463-.974-.239-1.686-.55-2.137-.933-.451-.384-.676-.986-.676-1.805 0-.821.286-1.454.856-1.898.57-.446 1.282-.668 2.136-.668.558 0 1.118.098 1.676.296a4.46 4.46 0 0 1 1.46.841l-.945 1.41c-.727-.569-1.477-.853-2.25-.853-.312 0-.557.076-.736.228a.756.756 0 0 0-.27.606c0 .251.11.451.329.6.22.148.727.323 1.52.525zm-12.058 3.321h-3.506l-.779 1.866h-1.986l3.615-8.642h1.807l3.614 8.642h-1.987l-.778-1.866zm-1.747-4.205l-1.053 2.51h2.094l-1.041-2.51zm-13.011-.927a2.52 2.52 0 0 0-1.801.711c-.499.474-.748 1.112-.748 1.916 0 .804.235 1.449.706 1.935a2.29 2.29 0 0 0 1.711.73c.918 0 1.668-.375 2.25-1.125l1.197 1.274c-.949 1.105-2.068 1.656-3.357 1.656-1.289 0-2.349-.42-3.183-1.261-.834-.841-1.251-1.902-1.251-3.183 0-1.283.425-2.352 1.274-3.209.85-.858 1.89-1.286 3.118-1.286 1.372 0 2.522.54 3.447 1.62l-1.161 1.359c-.59-.758-1.325-1.137-2.202-1.137zm-24.655-1.644h6.032v1.718h-4.164v1.78h3.746v1.644h-3.746v1.794h4.296v1.706h-6.164v-8.642zm-12.758 3.227v5.415h-1.867v-8.642h1.747l4.105 5.563v-5.563h1.868v8.642h-1.868l-3.985-5.415zm-10.64-3.227h1.867v8.642h-1.867v-8.642zm-11.646 0h1.867v6.924h3.567v1.718h-5.434v-8.642zm-12.759 3.227v5.415h-1.867v-8.642h1.748l4.105 5.563v-5.563h1.867v8.642h-1.867l-3.986-5.415zM65.39 47.88c-1.237 0-2.278-.427-3.124-1.28-.846-.853-1.269-1.914-1.269-3.184 0-1.269.423-2.33 1.269-3.184.846-.853 1.887-1.279 3.124-1.279s2.278.426 3.123 1.279c.846.854 1.27 1.915 1.27 3.184 0 1.27-.424 2.331-1.27 3.184-.845.853-1.886 1.28-3.123 1.28zm1.771-6.43c-.479-.543-1.067-.816-1.765-.816-.699 0-1.287.273-1.765.816-.48.544-.719 1.201-.719 1.972 0 .771.239 1.427.719 1.966.478.541 1.066.811 1.765.811.698 0 1.286-.27 1.765-.811.479-.539.718-1.195.718-1.966 0-.771-.239-1.428-.718-1.972zM217.31 13.673h-1.675c-.445 0-.781-.215-.893-.757l-.391-1.727c-.279-1.242-1.619-1.892-3.796-1.892-1.956 0-3.965.974-3.965 2.918 0 1.729 1.228 2.431 3.238 3.187l3.518 1.296c3.462 1.297 6.701 3.295 6.701 7.887 0 6.589-6.645 9.776-12.508 9.776-3.015 0-6.644-.648-8.041-1.08-.447-.162-.894-.432-.894-.971v-6.591c0-.486.168-.81.782-.81h2.01c.447 0 .782.268.894.756l.502 1.999c.392 1.512 1.954 2.268 4.691 2.268 2.792 0 4.579-1.512 4.579-3.511 0-1.891-1.396-2.808-3.407-3.565l-3.462-1.295c-3.629-1.352-6.421-3.297-6.421-7.617 0-6.105 6.142-8.913 11.615-8.913 2.847 0 5.304.432 6.98.973.446.161.836.323.836.971v5.888c0 .486-.279.81-.893.81zm-27.417 20.688c-2.902 0-5.136-.918-5.304-3.996h-.111c-2.234 2.268-5.528 3.996-9.215 3.996-4.522 0-9.324-2.7-9.324-8.589V11.567c0-.757-.279-1.675-1.172-1.837l-2.011-.325c-.558-.108-.725-.431-.725-.81V7.03c0-.485.279-.757.781-.811l10.219-.864c.447-.055.949.269.949.702v17.015c0 3.944 2.401 5.672 5.193 5.672 2.848 0 5.137-1.944 5.137-4.969V11.567c0-.757-.278-1.675-1.173-1.837l-2.009-.325c-.559-.108-.726-.431-.726-.81V7.03c0-.485.279-.757.78-.811l10.219-.864c.447-.055.949.269.949.702V27.88c0 1.08.447 1.728 1.396 1.728.281 0 .839-.055 1.229-.163.447-.108.726.055.782.541l.335 2.7c.056.595-.168.757-.503.865-.838.324-3.573.81-5.696.81zm-36.127-17.663c3.462 1.297 6.7 3.295 6.7 7.887 0 6.589-6.644 9.776-12.507 9.776-3.016 0-6.645-.648-8.041-1.08-.446-.162-.894-.432-.894-.971v-6.591c0-.486.168-.81.783-.81h2.009c.447 0 .782.268.894.756l.503 1.999c.39 1.512 1.954 2.268 4.69 2.268 2.792 0 4.578-1.512 4.578-3.511 0-1.891-1.396-2.808-3.406-3.565l-3.461-1.295c-3.629-1.352-6.422-3.297-6.422-7.617 0-6.105 6.142-8.913 11.615-8.913 2.847 0 5.304.432 6.979.973.447.161.838.323.838.971v5.888c0 .486-.28.81-.894.81h-1.675c-.446 0-.781-.215-.893-.757l-.391-1.727c-.279-1.242-1.62-1.892-3.797-1.892-1.954 0-3.965.974-3.965 2.918 0 1.729 1.229 2.431 3.24 3.187l3.517 1.296zm-30.377 5.491c-.729-.043-1.173-.334-1.453-.788-.445-.86-.729-1.817-.758-2.718.04-.537.431-.666 1.216-.809 2.819-.382 5.24-1.737 5.24-4.849 0-2.269-1.843-3.997-4.076-3.997-3.683 0-5.465 3.759-5.727 6.909-.383 3.046-.373 6.822.858 9.074.255.466.559.854.893 1.182 1.639 1.819 4.348 2.821 6.768 2.821 3.127 0 4.969-.864 6.421-1.566.558-.271 1.061.053 1.173.486l.726 3.349c.111.432-.111.864-.503 1.08-2.569 1.458-6.142 2.16-9.102 2.16-10.33 0-15.578-5.942-15.578-14.854 0-8.372 6.589-14.801 15.075-14.801 5.362 0 10.833 2.918 10.833 8.697 0 5.907-6.56 8.392-12.006 8.624zm-18.396-9.813a14.658 14.658 0 0 0-1.649-.108c-2.791 0-5.194 1.783-5.194 4.537v11.831c0 1.08.448 1.621.951 1.674l3.349.432c.504.055.727.432.727.812v1.457c0 .486-.28.755-.782.755H86.984c-.503 0-.782-.269-.782-.755v-1.457c0-.38.223-.704.726-.812l2.233-.432c.503-.109.949-.594.949-1.674V11.567c0-.757-.279-1.729-1.172-1.837l-2.569-.379c-.557-.107-.726-.431-.726-.81V7.03c0-.485.28-.757.782-.811l9.661-.864c.614-.055.837.378.893.918l.558 4.43h.223c1.955-3.133 4.578-5.619 8.321-5.619.41 0 .859.027 1.29.085l.005-.007c2.931.399 3.831 1.324 4.12 1.881.392.757-1.317 1.428-3.34 5.585-.499 1.025-1.228-.026-3.163-.252zM74.029 34.523c-9.213 0-14.965-5.779-14.965-14.475 0-8.427 6.701-15.017 15.747-15.017 3.684 0 5.975.54 6.533.756.39.162.725.54.725.973v6.968c0 .486-.279.756-.781.756H79.11c-.392 0-.726-.217-.838-.703l-.447-2.16c-.279-1.405-1.284-1.998-3.238-1.998-4.02 0-6.756 3.185-6.756 9.127 0 5.133 1.898 10.371 7.872 10.371 2.067 0 4.245-.971 5.305-1.565.503-.271 1.117-.217 1.285.432l.837 3.241c.168.541-.056.864-.391 1.081-1.339.863-5.026 2.213-8.71 2.213zM35.136 42.878a3.657 3.657 0 0 1 2.686-.918 4.449 4.449 0 0 1 3.086 1.547 4.567 4.567 0 0 1 1.102 3.304c-.191 2.868-2.51 5.085-5.289 5.179v.009H26.8c-2.819 0-5.22-2.412-5.789-5.098h-9.003c-3.244 0-6.123-2.619-6.123-5.901v-5.296a4.076 4.076 0 0 1-1.775.402 4.092 4.092 0 0 1-3.193-1.557 4.181 4.181 0 0 1-.89-3.067 4.168 4.168 0 0 1 1.513-2.807l1.847-1.506-.64-.85a5.598 5.598 0 0 1-1.08-4.126 5.547 5.547 0 0 1 2.118-3.689l1.412-1.092 1.079 1.43a5.633 5.633 0 0 1 .779 5.327l3.308-2.757-.677-.897a5.594 5.594 0 0 1-1.079-4.126 5.55 5.55 0 0 1 2.118-3.689l1.412-1.093 1.078 1.431a5.64 5.64 0 0 1 .77 5.358l3.328-2.775-.686-.91a5.593 5.593 0 0 1-1.081-4.126 5.562 5.562 0 0 1 2.118-3.69l1.413-1.091 1.078 1.43a5.637 5.637 0 0 1 .758 5.388l3.349-2.791-.696-.926c-1.842-2.443-1.377-5.95 1.038-7.815l1.413-1.091 1.077 1.43a5.588 5.588 0 0 1 1.08 4.125c-.06.449-.17.881-.329 1.291l4.868-4.056c.251-.21.567-.31.895-.277.325.031.619.189.827.444.429.528.356 1.31-.164 1.745l-1.77 1.466a5.477 5.477 0 0 1 4.872 1.808l1.185 1.341-1.326 1.199a5.458 5.458 0 0 1-3.666 1.417c-.442 0-.875-.055-1.296-.159l3.635 19.902.776 4.259h-2.107v7.571c.162-.226.348-.438.562-.627zm-14.199 3.266a5.862 5.862 0 0 1-.018-.44v-1.723a2.446 2.446 0 0 1-1.769.735c-1.578 0-2.894-1.262-2.965-2.871h-.022V28.139a5.479 5.479 0 0 1-2.117 1.048V41c0 2.835 2.279 5.144 5.081 5.144h1.81zm-4.328-19.48l-.651-.738a4.668 4.668 0 0 0-6.646-.379l-.729.659.651.738a4.687 4.687 0 0 0 3.512 1.59c1.157 0 2.27-.428 3.134-1.21l.729-.66zM13.246 41V29.322a5.482 5.482 0 0 1-1.654-.101V41c0 2.644 1.984 4.831 4.525 5.113A5.974 5.974 0 0 1 13.246 41zm.417 5.113A5.977 5.977 0 0 1 10.792 41V28.982a5.48 5.48 0 0 1-1.653-1.002V41c0 2.644 1.983 4.831 4.524 5.113zM6.685 27.574V41c0 2.644 1.983 4.831 4.525 5.113A5.973 5.973 0 0 1 8.338 41V27.145l-.497-.564-1.2.993h.044zm-1.046-8.24l-.592-.786-.777.6a4.75 4.75 0 0 0-1.81 3.153 4.781 4.781 0 0 0 .923 3.527l.593.786.776-.599c2.064-1.595 2.462-4.592.887-6.681zm6.94-5.805l-.592-.785-.777.599a4.75 4.75 0 0 0-1.811 3.154 4.78 4.78 0 0 0 .924 3.526l.592.787.777-.601c2.063-1.594 2.461-4.59.887-6.68zm6.94-5.803l-.593-.787-.776.6a4.748 4.748 0 0 0-1.811 3.155 4.787 4.787 0 0 0 .923 3.526l.593.785.777-.599c2.063-1.594 2.461-4.591.887-6.68zm6.939-5.805l-.592-.786-.777.599c-2.063 1.594-2.461 4.591-.887 6.681l.593.786.776-.6a4.744 4.744 0 0 0 1.81-3.155 4.774 4.774 0 0 0-.923-3.525zm7.305 2.154a.431.431 0 0 0-.231-.757.418.418 0 0 0-.31.097l-30.723 25.6-.034-.042-.417.34A3.35 3.35 0 0 0 .831 31.57a3.364 3.364 0 0 0 .716 2.466 3.295 3.295 0 0 0 2.567 1.251 3.292 3.292 0 0 0 1.771-.514v-1.017l-.183.149a2.489 2.489 0 0 1-3.526-.384 2.544 2.544 0 0 1-.54-1.865c.071-.674.398-1.28.919-1.705l.421-.336-.026-.031L33.763 4.075zM5.885 32.705v-4.418l-2.822 2.302a1.714 1.714 0 0 0-.623 1.155c-.049.457.082.905.366 1.263a1.68 1.68 0 0 0 2.389.26l.69-.562zm9.638-12.304l.65.739a4.688 4.688 0 0 0 3.513 1.59 4.665 4.665 0 0 0 3.134-1.211l.729-.658-.651-.739a4.689 4.689 0 0 0-3.513-1.591 4.67 4.67 0 0 0-3.134 1.212l-.728.658zm6.94-5.803l.651.737a4.688 4.688 0 0 0 3.512 1.592c1.157 0 2.27-.431 3.134-1.212l.728-.66-.651-.736a4.664 4.664 0 0 0-6.646-.38l-.728.659zm11.103-3.477c1.156 0 2.27-.429 3.133-1.21l.729-.659-.651-.739a4.687 4.687 0 0 0-3.512-1.591c-1.157 0-2.27.431-3.134 1.211l-.728.66.651.738a4.687 4.687 0 0 0 3.512 1.59zm.208 26.974v-2.161h-3.281c-1.25 0-2.267-1.03-2.267-2.296 0-1.576 1.017-2.545 2.267-2.545v.81c-.809 0-1.467.627-1.467 1.735 0 .819.658 1.486 1.467 1.486h5.227l-.602-3.303-3.714-20.339a5.502 5.502 0 0 1-1.947-1.411l-.706-.8-3.28 2.714c.281-.044.566-.068.854-.068 1.567 0 3.065.679 4.109 1.862l1.184 1.341-1.326 1.199a5.456 5.456 0 0 1-7.775-.444l-.736-.834-3.338 2.764a5.482 5.482 0 0 1 5.051 1.777l1.184 1.343-1.325 1.198a5.455 5.455 0 0 1-3.667 1.417 5.487 5.487 0 0 1-4.109-1.86l-.766-.869-3.4 2.815a5.42 5.42 0 0 1 1.035-.101c1.567 0 3.065.679 4.109 1.863l1.184 1.341-.776.701v14.372l.02-.002c.051 1.212 1.063 2.158 2.26 2.104a1.652 1.652 0 0 0 1.161-.545c.302-.332.458-.765.44-1.217a1.278 1.278 0 0 0-1.323-1.231.955.955 0 0 0-.906.996.696.696 0 0 0 .221.483c.135.126.31.192.493.182l.033.81a1.495 1.495 0 0 1-1.546-1.44c-.04-.974.71-1.8 1.672-1.841 1.137-.052 2.107.853 2.155 2.007.001.043-.001.085-.001.127h.077v3.809c0 2.659 2.002 4.852 4.56 5.118a5.97 5.97 0 0 1-2.88-5.118v-4.982h.8v4.982c0 2.659 2.002 4.852 4.559 5.118a5.971 5.971 0 0 1-2.879-5.118v-4.982h.801v4.982c0 2.659 2.001 4.852 4.559 5.118a5.972 5.972 0 0 1-2.88-5.118v-4.982h.801v4.982c0 2.659 2.001 4.852 4.558 5.118a5.97 5.97 0 0 1-2.878-5.118v-4.982h.8v4.982c0 2.752 2.145 5.006 4.831 5.139 2.472.035 4.573-1.9 4.741-4.426a3.751 3.751 0 0 0-.906-2.716 3.652 3.652 0 0 0-2.538-1.272 2.852 2.852 0 0 0-2.106.719 2.932 2.932 0 0 0-.986 2.017c-.084 1.261.861 2.356 2.106 2.441.96.067 1.796-.673 1.861-1.646a1.345 1.345 0 0 0-1.239-1.435.976.976 0 0 0-.721.246c-.201.178-.32.424-.338.692l-.799-.054c.033-.485.249-.928.61-1.247a1.76 1.76 0 0 1 1.302-.446 2.104 2.104 0 0 1 1.461.734c.375.433.561.99.522 1.564a2.574 2.574 0 0 1-2.177 2.379v.053h-.607c-1.072 0-2.009-.739-2.506-1.832l-.003-.008a4.323 4.323 0 0 1-.374-1.78v-6.26h-5.495v-.811h5.495zm-9.73-9.303l-.758-.347c.762-1.572 2.194-2.722 3.926-3.154 1.353-.337 3.722.176 4.442.572l-.414.707c-.523-.289-2.678-.777-3.819-.492-1.49.373-2.721 1.36-3.377 2.714z"/>
</svg>
