<svg xmlns="http://www.w3.org/2000/svg" width="26" height="32" viewBox="0 0 26 32">
  <g id="Group_3325" data-name="Group 3325" transform="translate(-8 -144)">
    <path id="Path_1134" data-name="Path 1134" d="M30.269,176a4.171,4.171,0,0,0,2.69-1.009A2.872,2.872,0,0,0,34,172.872a3.226,3.226,0,0,0-1.143-2.383,3.094,3.094,0,0,0-2.143-.747,2.7,2.7,0,0,0-1.769.835v-4.315h2.242L28.3,151.418a5.112,5.112,0,0,0,3.439-1.511l.225-.235-.225-.235a5.127,5.127,0,0,0-3.52-1.5l1.033-.835.034-.079A1.085,1.085,0,0,0,29.251,146a1.022,1.022,0,0,0-.675-.4,1.773,1.773,0,0,0-1.3.326l-2.744,2.219a3.686,3.686,0,0,0,.08-.473,4.2,4.2,0,0,0-1.572-3.485L22.806,144l-.232.189A4.828,4.828,0,0,0,21,147.674a3.509,3.509,0,0,0,1.15,2.4l-2.079,1.682a3.631,3.631,0,0,0,.2-.891,4.22,4.22,0,0,0-1.572-3.486l-.233-.189-.233.189a4.829,4.829,0,0,0-1.572,3.486A3.581,3.581,0,0,0,18,153.434l-2.467,2a3.71,3.71,0,0,0,.415-1.379,4.2,4.2,0,0,0-1.572-3.485l-.233-.189-.232.189a4.79,4.79,0,0,0-1.572,3.485,3.668,3.668,0,0,0,1.515,2.738l-3.089,2.5a3.884,3.884,0,0,0,.849-2.049,4.2,4.2,0,0,0-1.572-3.485l-.233-.189-.232.189A4.778,4.778,0,0,0,8,157.239a3.7,3.7,0,0,0,1.575,2.787l.137.11-.5.4A3.419,3.419,0,0,0,8,163.261a2.531,2.531,0,0,0,.407,1.179,3.379,3.379,0,0,0,2.989,1.726c.077,0,.147,0,.216-.006V169.4a3.941,3.941,0,0,0,.792,2.286,4.227,4.227,0,0,0,2.372,1.534H21v.4a2.817,2.817,0,0,0,.824,1.585,3.083,3.083,0,0,0,2.141.8ZM17.388,150.8a3.4,3.4,0,0,1,1.084-2.681,3.167,3.167,0,0,1,0,4.794A3.383,3.383,0,0,1,17.388,150.8Zm-4.333,3.188a3.391,3.391,0,0,1,1.084-2.682,3.167,3.167,0,0,1,0,4.8A3.388,3.388,0,0,1,13.055,153.988Zm-4.333,3.188a3.391,3.391,0,0,1,1.084-2.682,3.167,3.167,0,0,1,0,4.8A3.388,3.388,0,0,1,8.721,157.176Zm19.169-8.55a4.265,4.265,0,0,1,3.066,1.045,4.24,4.24,0,0,1-3.066,1.045,4.065,4.065,0,0,1-2.115-.806l1.444-1.168A4.007,4.007,0,0,1,27.891,148.627Zm-6.169-1.016a3.391,3.391,0,0,1,1.084-2.682,3.389,3.389,0,0,1,1.085,2.682,3.155,3.155,0,0,1-.57,1.515l-.615.5A3.332,3.332,0,0,1,21.721,147.611ZM9.049,164.122a2.283,2.283,0,0,1-.322-.908,2.639,2.639,0,0,1,.955-2.145l18.031-14.591a1.109,1.109,0,0,1,.6-.2.74.74,0,0,1,.126.01.324.324,0,0,1,.206.1.4.4,0,0,1-.007.3l-17.95,14.523a1.873,1.873,0,0,0-.844,2.534,1.943,1.943,0,0,0,1.144.952,2.017,2.017,0,0,0,.617.088v.678A2.653,2.653,0,0,1,9.049,164.122Zm14.508-12.017a4.25,4.25,0,0,1,3.066,1.045,4.24,4.24,0,0,1-3.066,1.045,4.055,4.055,0,0,1-2.1-.794l1.471-1.19A4.015,4.015,0,0,1,23.557,152.105Zm-4.333,3.478a4.261,4.261,0,0,1,3.066,1.045,4.243,4.243,0,0,1-3.066,1.045,4.051,4.051,0,0,1-2.083-.783l1.5-1.212A3.944,3.944,0,0,1,19.224,155.583Zm-4.333,3.478a4.27,4.27,0,0,1,3.066,1.045,4.242,4.242,0,0,1-3.066,1.045,4.05,4.05,0,0,1-2.067-.771l1.527-1.234A3.9,3.9,0,0,1,14.891,159.062Zm-1.113,2.573a4.705,4.705,0,0,0,.722.162v7.6a3.892,3.892,0,0,0,1.526,3.023,3.451,3.451,0,0,1-1.6-1.148,3.255,3.255,0,0,1-.653-1.882Zm2.1,9.638a3.255,3.255,0,0,1-.653-1.882v-7.546h.722V169.4a3.892,3.892,0,0,0,1.526,3.023A3.451,3.451,0,0,1,15.875,171.273Zm-4.264-7.183a1.309,1.309,0,0,1-.389-.058,1.234,1.234,0,0,1-.726-.6,1.188,1.188,0,0,1,.56-1.62l.555-.449Zm1.375,7.183a3.255,3.255,0,0,1-.653-1.882v-8.5a5.086,5.086,0,0,0,.722.445V169.4a3.892,3.892,0,0,0,1.526,3.023A3.451,3.451,0,0,1,12.986,171.273Zm6.254,1.249a3.528,3.528,0,0,1-1.92-1.249,3.255,3.255,0,0,1-.653-1.882v-7.773a4.949,4.949,0,0,0,.722-.3v8.77l.015.1a2.367,2.367,0,0,0,2.21,1.666,2.073,2.073,0,0,0,.369-.033,2.192,2.192,0,0,0,1.019-.5v1.2Zm13.23,1.957a3.389,3.389,0,0,1-2.414.827,3.2,3.2,0,0,1-2.557-1.818v-3.748h-.722v3.826l.032.145a4.179,4.179,0,0,0,1.323,1.594h-.1a2.27,2.27,0,0,1-1.366-.595,2.151,2.151,0,0,1-.616-1.145v-3.826h-.722l0,3.878a2.817,2.817,0,0,0,.824,1.585c.012.012.025.019.037.031a2.091,2.091,0,0,1-1.587-1.668v-3.826h-.722l0,3.878a2.817,2.817,0,0,0,.824,1.585c.012.012.025.019.037.031a2.091,2.091,0,0,1-1.587-1.668v-3.826h-.722l0,3.878a2.817,2.817,0,0,0,.824,1.585c.012.012.025.019.037.031a2.091,2.091,0,0,1-1.587-1.668v-3.818a1.471,1.471,0,0,0-.149-.7,1.728,1.728,0,0,0-1.748-.684c-.372.093-1,.417-.992,1.036a1.15,1.15,0,0,0,1.023,1.034l.12-.686a.457.457,0,0,1-.421-.357c0-.17.294-.315.452-.355a.98.98,0,0,1,.993.456v.659a1.441,1.441,0,0,1-.09.2,1.508,1.508,0,0,1-2.8-.312v-9.155a4.938,4.938,0,0,0,.627-.536l.225-.235-.225-.235a5.135,5.135,0,0,0-3.428-1.5l1.267-1.025a4.8,4.8,0,0,0,2.588,1.02c.127.01.269,0,.391,0a5.035,5.035,0,0,0,3.516-1.5l.225-.235-.225-.235a5.14,5.14,0,0,0-3.459-1.5l1.283-1.037a4.8,4.8,0,0,0,2.6,1.032c.127.01.269,0,.391,0a5.035,5.035,0,0,0,3.516-1.5l.225-.235-.225-.235a5.144,5.144,0,0,0-3.49-1.5l1.3-1.049a4.851,4.851,0,0,0,2.342,1l2.76,14.2h-3.9a1.272,1.272,0,0,1-.74-.385.982.982,0,0,1-.344-.657c0-.406.5-.852,1.191-1.059l-.215-.665c-1.015.307-1.7,1-1.7,1.723a1.631,1.631,0,0,0,.555,1.15,1.941,1.941,0,0,0,1.25.59h1.806v1.391H24.611v.7h3.611s0,3.705,0,3.825a2.512,2.512,0,0,0,.906,1.871,2.216,2.216,0,0,0,1.665.562,1.936,1.936,0,0,0,1.761-1.734,1.843,1.843,0,0,0-.736-1.419,1.412,1.412,0,0,0-1.149-.313,1.511,1.511,0,0,0-.974.9l.663.273a.835.835,0,0,1,.47-.493.7.7,0,0,1,.537.177,1.16,1.16,0,0,1,.467.873c0,.591-.669.995-1.127,1.048a1.477,1.477,0,0,1-1.1-.392,1.817,1.817,0,0,1-.664-1.348,1.992,1.992,0,0,1,1.842-1.743,2.108,2.108,0,0,1,1.585.57,2.569,2.569,0,0,1,.907,1.864A2.193,2.193,0,0,1,32.47,174.479Z" fill="#fff"/>
    <path id="Path_1135" data-name="Path 1135" d="M34.165,167.871l.67-.742A4.472,4.472,0,0,0,31.449,166a4.62,4.62,0,0,0-3.386,2.253l.874.488A3.57,3.57,0,0,1,31.551,167,3.475,3.475,0,0,1,34.165,167.871Z" transform="translate(-6.864 -7.117)" fill="#fff"/>
  </g>
</svg>
