<svg xmlns="http://www.w3.org/2000/svg" width="23" height="21" viewBox="0 0 23 21">
  <g id="slots" transform="translate(-8 -9)">
    <path id="Path_1182" data-name="Path 1182" d="M13.833,21.5h-1a6.352,6.352,0,0,1,.99-3.44A1.981,1.981,0,0,0,13.368,18c-.062,0-.13.066-.232.169a.9.9,0,0,1-.635.332H12V17h1v.063A1.1,1.1,0,0,1,13.3,17a2.822,2.822,0,0,1,.767.087c.309.067.521.1.62.023h0l.628.778h0a4.814,4.814,0,0,0-1.48,3.61Z" fill="#fff"/>
    <path id="Path_1183" data-name="Path 1183" d="M19.833,21.5h-1a6.352,6.352,0,0,1,.99-3.44A1.994,1.994,0,0,0,19.368,18c-.063,0-.13.066-.233.169a.9.9,0,0,1-.636.332H18V17h1v.063A1.1,1.1,0,0,1,19.3,17a2.831,2.831,0,0,1,.767.087c.309.067.521.1.62.023h0l.628.778h0A4.814,4.814,0,0,0,19.833,21.5Z" fill="#fff"/>
    <path id="Path_1184" data-name="Path 1184" d="M25.833,21.5h-1a6.352,6.352,0,0,1,.99-3.44A1.981,1.981,0,0,0,25.368,18c-.062,0-.13.066-.232.169a.9.9,0,0,1-.636.332H24V17h1v.063A1.1,1.1,0,0,1,25.3,17a2.818,2.818,0,0,1,.767.087c.309.067.521.1.62.023h0l.628.778h0A4.814,4.814,0,0,0,25.833,21.5Z" fill="#fff"/>
    <rect id="Rectangle_708" data-name="Rectangle 708" width="1" height="9" transform="translate(16 15)" fill="#fff"/>
    <rect id="Rectangle_709" data-name="Rectangle 709" width="1" height="9" transform="translate(22 15)" fill="#fff"/>
    <path id="Path_1185" data-name="Path 1185" d="M27.5,30h-16A3.5,3.5,0,0,1,8,26.5v-14A3.5,3.5,0,0,1,11.5,9h16A3.5,3.5,0,0,1,31,12.5v14A3.5,3.5,0,0,1,27.5,30Zm-16-20A2.5,2.5,0,0,0,9,12.5v14A2.5,2.5,0,0,0,11.5,29h16A2.5,2.5,0,0,0,30,26.5v-14A2.5,2.5,0,0,0,27.5,10Z" fill="#fff"/>
    <path id="Path_1186" data-name="Path 1186" d="M29,26H10V13H29ZM11,25H28V14H11Z" fill="#fff"/>
  </g>
</svg>
